<svg width="144" height="30" viewBox="0 0 144 30" fill="none" xmlns="http://www.w3.org/2000/svg">
<path d="M7.93945 15.8262L10.6143 9.35938H14.9541L9.99121 19.4355V25H5.89844V19.4355L0.924805 9.35938H5.26465L7.93945 15.8262Z" fill="#EE2B69"/>
<path d="M28.8115 19.6182C28.7686 20.721 28.4749 21.695 27.9307 22.54C27.3864 23.3779 26.6309 24.0332 25.6641 24.5059C24.7044 24.9785 23.5729 25.2148 22.2695 25.2148C20.8587 25.2148 19.652 24.9069 18.6494 24.291C17.6468 23.668 16.8805 22.7799 16.3506 21.627C15.8278 20.474 15.5664 19.099 15.5664 17.502V16.8682C15.5664 15.264 15.8421 13.8854 16.3936 12.7324C16.945 11.5794 17.7148 10.6914 18.7031 10.0684C19.6986 9.44531 20.8659 9.13379 22.2051 9.13379C23.5944 9.13379 24.7617 9.38444 25.707 9.88574C26.6595 10.387 27.3936 11.071 27.9092 11.9375C28.432 12.804 28.7399 13.7816 28.833 14.8701H24.8154C24.8011 14.0537 24.6042 13.445 24.2246 13.0439C23.8451 12.6429 23.1719 12.4424 22.2051 12.4424C21.625 12.4424 21.1452 12.582 20.7656 12.8613C20.3932 13.1335 20.1139 13.5918 19.9277 14.2363C19.7487 14.8737 19.6592 15.7438 19.6592 16.8467V17.502C19.6592 18.612 19.738 19.4893 19.8955 20.1338C20.0602 20.7712 20.3324 21.2259 20.7119 21.498C21.0986 21.7702 21.6178 21.9062 22.2695 21.9062C22.8066 21.9062 23.2614 21.8275 23.6338 21.6699C24.0062 21.5124 24.2891 21.2653 24.4824 20.9287C24.6829 20.5921 24.7868 20.1553 24.7939 19.6182H28.8115Z" fill="#EE2B69"/>
<path d="M32.1523 25V21.7559H35.6006C36.2809 21.7559 36.8538 21.5983 37.3193 21.2832C37.7848 20.9681 38.1393 20.4919 38.3828 19.8545C38.6263 19.2171 38.748 18.415 38.748 17.4482V16.9004C38.748 15.9408 38.6263 15.1458 38.3828 14.5156C38.1465 13.8783 37.7884 13.402 37.3086 13.0869C36.8359 12.7718 36.2451 12.6143 35.5361 12.6143H32.0879V9.35938H35.5361C36.9684 9.35938 38.2324 9.68164 39.3281 10.3262C40.431 10.9707 41.2939 11.8623 41.917 13.001C42.54 14.1325 42.8516 15.4395 42.8516 16.9219V17.4482C42.8516 18.9235 42.54 20.2305 41.917 21.3691C41.2939 22.5078 40.4382 23.3994 39.3496 24.0439C38.2611 24.6813 37.0114 25 35.6006 25H32.1523ZM34.4834 25H30.4443V9.35938H34.4834V25Z" fill="black"/>
<path d="M46.6221 8.5C47.2594 8.5 47.7715 8.67904 48.1582 9.03711C48.5521 9.39518 48.749 9.86068 48.749 10.4336C48.749 10.9993 48.5521 11.4648 48.1582 11.8301C47.7715 12.1882 47.2594 12.3672 46.6221 12.3672C45.9919 12.3672 45.4798 12.1882 45.0859 11.8301C44.6921 11.4648 44.4951 10.9993 44.4951 10.4336C44.4951 9.86068 44.6921 9.39518 45.0859 9.03711C45.4798 8.67904 45.9919 8.5 46.6221 8.5ZM48.5664 25H44.6777V13.377H48.5664V25Z" fill="black"/>
<path d="M54.5391 25H50.6719V13.377H54.2812L54.5391 16.4814V25ZM57.8262 17.0723C57.6758 17.0579 57.4717 17.04 57.2139 17.0186C56.9632 16.9971 56.7591 16.9863 56.6016 16.9863C56.0573 16.9863 55.6133 17.0579 55.2695 17.2012C54.9329 17.3372 54.6895 17.5521 54.5391 17.8457C54.3887 18.1393 54.3171 18.526 54.3242 19.0059L53.6475 18.4258C53.6475 17.373 53.7799 16.4528 54.0449 15.665C54.3099 14.8701 54.6823 14.2542 55.1621 13.8174C55.6491 13.3805 56.2184 13.1621 56.8701 13.1621C57.0492 13.1621 57.2282 13.1729 57.4072 13.1943C57.5934 13.2087 57.7546 13.2409 57.8906 13.291L57.8262 17.0723Z" fill="black"/>
<path d="M64.8086 25.2148C63.5195 25.2148 62.4202 24.9535 61.5107 24.4307C60.6084 23.9079 59.9209 23.2204 59.4482 22.3682C58.9756 21.5088 58.7393 20.5814 58.7393 19.5859V19.1885C58.7393 18.0785 58.9469 17.0687 59.3623 16.1592C59.7777 15.2425 60.4043 14.5156 61.2422 13.9785C62.0801 13.4342 63.1328 13.1621 64.4004 13.1621C65.5247 13.1621 66.4844 13.3949 67.2793 13.8604C68.0742 14.3187 68.6829 14.9775 69.1055 15.8369C69.5352 16.6891 69.75 17.7096 69.75 18.8984V20.5205H60.1895V18.0391H65.9688V17.7275C65.9759 17.391 65.9186 17.1152 65.7969 16.9004C65.6751 16.6855 65.4925 16.528 65.249 16.4277C65.0127 16.3275 64.7191 16.2773 64.3682 16.2773C63.8669 16.2773 63.4909 16.417 63.2402 16.6963C62.9896 16.9756 62.8213 17.3372 62.7354 17.7812C62.6494 18.2181 62.6064 18.6872 62.6064 19.1885V19.5859C62.6064 20.1016 62.7031 20.5492 62.8965 20.9287C63.0898 21.3011 63.3691 21.5876 63.7344 21.7881C64.1068 21.9886 64.5508 22.0889 65.0664 22.0889C65.5391 22.0889 66.0117 22.0065 66.4844 21.8418C66.9642 21.6771 67.3688 21.387 67.6982 20.9717L69.4385 23.1953C69.0804 23.6966 68.5003 24.1585 67.6982 24.5811C66.9033 25.0036 65.9401 25.2148 64.8086 25.2148Z" fill="black"/>
<path d="M76.1846 25.2148C74.96 25.2148 73.9395 24.957 73.123 24.4414C72.3138 23.9258 71.7051 23.224 71.2969 22.3359C70.8887 21.4408 70.6846 20.4274 70.6846 19.2959V19.0918C70.6846 17.9603 70.8851 16.9469 71.2861 16.0518C71.6943 15.1566 72.3031 14.4512 73.1123 13.9355C73.9287 13.4199 74.9456 13.1621 76.1631 13.1621C77.1514 13.1621 78.0179 13.3483 78.7627 13.7207C79.5146 14.0859 80.1019 14.623 80.5244 15.332C80.9469 16.041 81.151 16.9076 81.1367 17.9316H77.5166C77.5238 17.6309 77.4772 17.3551 77.377 17.1045C77.2839 16.8538 77.1299 16.6533 76.915 16.5029C76.7002 16.3525 76.4173 16.2773 76.0664 16.2773C75.6152 16.2773 75.2822 16.4062 75.0674 16.6641C74.8525 16.9147 74.7129 17.2549 74.6484 17.6846C74.584 18.1071 74.5518 18.5762 74.5518 19.0918V19.2959C74.5518 19.8258 74.5804 20.3021 74.6377 20.7246C74.7021 21.1471 74.8454 21.4837 75.0674 21.7344C75.2894 21.9779 75.6331 22.0996 76.0986 22.0996C76.4137 22.0996 76.6787 22.0459 76.8936 21.9385C77.1084 21.8311 77.266 21.6771 77.3662 21.4766C77.4736 21.2689 77.5238 21.0218 77.5166 20.7354H81.1367C81.151 21.6449 80.9398 22.4362 80.5029 23.1094C80.0732 23.7754 79.4824 24.2946 78.7305 24.667C77.9857 25.0322 77.137 25.2148 76.1846 25.2148Z" fill="black"/>
<path d="M88.8926 16.1699H81.749V13.377H88.8926V16.1699ZM87.0342 10.4873V20.9932C87.0342 21.2653 87.0664 21.4801 87.1309 21.6377C87.1953 21.7881 87.3099 21.8955 87.4746 21.96C87.6465 22.0244 87.8792 22.0566 88.1729 22.0566C88.3734 22.0566 88.5417 22.0531 88.6777 22.0459C88.8138 22.0387 88.9391 22.0244 89.0537 22.0029V24.8818C88.7243 24.9964 88.3877 25.0788 88.0439 25.1289C87.7074 25.1862 87.3385 25.2148 86.9375 25.2148C86.1354 25.2148 85.4515 25.0895 84.8857 24.8389C84.3271 24.5811 83.901 24.1836 83.6074 23.6465C83.3138 23.1022 83.167 22.404 83.167 21.5518V10.4873H87.0342Z" fill="black"/>
<path d="M89.5479 19.0918C89.5479 17.9531 89.7627 16.9398 90.1924 16.0518C90.6221 15.1566 91.2559 14.4512 92.0938 13.9355C92.9316 13.4199 93.9629 13.1621 95.1875 13.1621C96.4264 13.1621 97.4648 13.4199 98.3027 13.9355C99.1478 14.4512 99.7816 15.1566 100.204 16.0518C100.634 16.9398 100.849 17.9531 100.849 19.0918V19.2959C100.849 20.4274 100.634 21.4408 100.204 22.3359C99.7816 23.2311 99.1514 23.9365 98.3135 24.4521C97.4756 24.9606 96.4408 25.2148 95.209 25.2148C93.9772 25.2148 92.9388 24.9606 92.0938 24.4521C91.2559 23.9365 90.6221 23.2311 90.1924 22.3359C89.7627 21.4408 89.5479 20.4274 89.5479 19.2959V19.0918ZM93.4258 19.2959C93.4258 19.8258 93.4723 20.3057 93.5654 20.7354C93.6657 21.1579 93.8447 21.4909 94.1025 21.7344C94.3604 21.9779 94.7292 22.0996 95.209 22.0996C95.6816 22.0996 96.0469 21.9779 96.3047 21.7344C96.5625 21.4909 96.738 21.1579 96.8311 20.7354C96.9313 20.3057 96.9814 19.8258 96.9814 19.2959V19.0918C96.9814 18.5762 96.9313 18.1071 96.8311 17.6846C96.738 17.2549 96.5625 16.9147 96.3047 16.6641C96.0469 16.4062 95.6745 16.2773 95.1875 16.2773C94.7148 16.2773 94.3496 16.4062 94.0918 16.6641C93.8411 16.9147 93.6657 17.2549 93.5654 17.6846C93.4723 18.1071 93.4258 18.5762 93.4258 19.0918V19.2959Z" fill="black"/>
<path d="M106.252 25H102.385V13.377H105.994L106.252 16.4814V25ZM109.539 17.0723C109.389 17.0579 109.185 17.04 108.927 17.0186C108.676 16.9971 108.472 16.9863 108.314 16.9863C107.77 16.9863 107.326 17.0579 106.982 17.2012C106.646 17.3372 106.402 17.5521 106.252 17.8457C106.102 18.1393 106.03 18.526 106.037 19.0059L105.36 18.4258C105.36 17.373 105.493 16.4528 105.758 15.665C106.023 14.8701 106.395 14.2542 106.875 13.8174C107.362 13.3805 107.931 13.1621 108.583 13.1621C108.762 13.1621 108.941 13.1729 109.12 13.1943C109.306 13.2087 109.467 13.2409 109.604 13.291L109.539 17.0723Z" fill="black"/>
<path d="M117.273 13.377H121.42L116.79 26.708C116.69 27.0016 116.554 27.3203 116.382 27.6641C116.21 28.0078 115.977 28.3337 115.684 28.6416C115.397 28.9495 115.025 29.2002 114.566 29.3936C114.115 29.5941 113.553 29.6943 112.88 29.6943C112.636 29.6943 112.443 29.6872 112.3 29.6729C112.157 29.6657 112.017 29.6442 111.881 29.6084C111.745 29.5726 111.562 29.526 111.333 29.4688V26.5898C111.419 26.5898 111.491 26.5863 111.548 26.5791C111.612 26.5791 111.688 26.5791 111.773 26.5791C112.346 26.5791 112.747 26.5075 112.977 26.3643C113.213 26.2282 113.378 26.0384 113.471 25.7949L114.33 23.5928L117.273 13.377ZM115.995 21.1865L116.393 25.5049L113.814 25.3652L109.722 13.377H113.868L115.995 21.1865Z" fill="black"/>
<path d="M142.893 14.5657C143.23 15.136 142.9 15.898 141.831 16.7527C140.646 17.6902 139.426 18.5843 138.224 19.5002C137.738 20.163 137.033 20.4968 136.273 20.6388C134.97 20.8941 134.08 19.8136 134.589 18.5911C134.865 17.9304 135.202 17.2566 135.967 16.9923C137.28 15.8859 138.755 15.0185 140.331 14.3519C141.563 13.8314 142.53 13.957 142.893 14.5657Z" fill="black"/>
<path d="M134.039 8.4293C133.672 8.66096 133.296 8.92094 133.018 9.24865C131.783 10.7012 130.566 12.1711 129.642 13.8518C129.455 14.1902 129.303 14.559 129.203 14.9317C129.053 15.4945 129.174 16.0064 129.689 16.3512C130.199 16.6925 130.702 16.5988 131.201 16.2952C131.586 16.0617 131.898 15.7497 132.144 15.3862C132.609 14.6988 133.043 13.991 133.311 13.5707C133.915 12.5201 134.371 11.7667 134.782 10.9899C135.032 10.5171 135.246 10.0187 135.417 9.51067C135.546 9.12777 135.502 8.72805 135.14 8.45173C134.786 8.17947 134.387 8.21151 134.039 8.4293Z" fill="black"/>
<path d="M125.829 4.70129C126.006 5.24323 126.249 5.79564 126.043 6.39628L126.051 6.40097C126.341 8.38552 126.612 10.3681 126.385 12.3771C126.32 12.953 126.199 13.5347 126.049 14.0974C125.906 14.6649 125.527 15.0295 124.927 15.1168C124.327 15.2044 123.9 14.8897 123.564 14.4344C123.249 13.9932 123.103 13.4704 122.992 12.9394C122.605 11.1546 122.648 9.35192 122.779 7.54268C122.512 6.61881 122.727 5.70988 122.939 4.82068C123.116 4.11811 123.541 3.58424 124.332 3.5244C124.979 3.47851 125.567 3.91677 125.829 4.70129Z" fill="black"/>
</svg>
